<svg width="984" height="1068" viewBox="0 0 984 1068" fill="none" xmlns="http://www.w3.org/2000/svg">
<path d="M538 380C538 402.091 518.972 420 495.5 420C472.028 420 453 402.091 453 380C453 357.909 472.028 340 495.5 340C518.972 340 538 357.909 538 380Z" fill="white"/>
<path d="M588 452C588 474.091 568.972 492 545.5 492C522.028 492 503 474.091 503 452C503 429.909 522.028 412 545.5 412C568.972 412 588 429.909 588 452Z" fill="white"/>
<path d="M491 452C491 474.091 471.972 492 448.5 492C425.028 492 406 474.091 406 452C406 429.909 425.028 412 448.5 412C471.972 412 491 429.909 491 452Z" fill="white"/>
<path d="M633 528C633 550.091 613.972 568 590.5 568C567.028 568 548 550.091 548 528C548 505.909 567.028 488 590.5 488C613.972 488 633 505.909 633 528Z" fill="white"/>
<path d="M449 528C449 550.091 429.972 568 406.5 568C383.028 568 364 550.091 364 528C364 505.909 383.028 488 406.5 488C429.972 488 449 505.909 449 528Z" fill="white"/>
<path d="M673 608C673 630.091 653.972 648 630.5 648C607.028 648 588 630.091 588 608C588 585.909 607.028 568 630.5 568C653.972 568 673 585.909 673 608Z" fill="white"/>
<path d="M417 608C417 630.091 397.972 648 374.5 648C351.028 648 332 630.091 332 608C332 585.909 351.028 568 374.5 568C397.972 568 417 585.909 417 608Z" fill="white"/>
<path d="M552 608C552 637.823 526.704 662 495.5 662C464.296 662 439 637.823 439 608C439 578.177 464.296 554 495.5 554C526.704 554 552 578.177 552 608Z" fill="white"/>
<path d="M316 273.5C316 326.795 270.109 370 213.5 370C156.891 370 111 326.795 111 273.5C111 220.205 156.891 177 213.5 177C270.109 177 316 220.205 316 273.5Z" fill="white"/>
<path d="M316 879.5C316 932.795 270.109 976 213.5 976C156.891 976 111 932.795 111 879.5C111 826.205 156.891 783 213.5 783C270.109 783 316 826.205 316 879.5Z" fill="white"/>
<path d="M870 879.5C870 932.795 824.109 976 767.5 976C710.891 976 665 932.795 665 879.5C665 826.205 710.891 783 767.5 783C824.109 783 870 826.205 870 879.5Z" fill="white"/>
<path d="M870 273.5C870 326.795 824.109 370 767.5 370C710.891 370 665 326.795 665 273.5C665 220.205 710.891 177 767.5 177C824.109 177 870 220.205 870 273.5Z" fill="white"/>
<path d="M631 128C631 198.692 570.111 256 495 256C419.889 256 359 198.692 359 128C359 57.3076 419.889 2.36559e-08 495 5.2837e-08C570.111 8.20181e-08 631 57.3076 631 128Z" fill="white"/>
<path d="M984 574C984 644.692 923.111 702 848 702C772.889 702 712 644.692 712 574C712 503.308 772.889 446 848 446C923.111 446 984 503.308 984 574Z" fill="white"/>
<path d="M633 940C633 1010.69 572.111 1068 497 1068C421.889 1068 361 1010.69 361 940C361 869.308 421.889 812 497 812C572.111 812 633 869.308 633 940Z" fill="white"/>
<path d="M272 574C272 644.692 211.111 702 136 702C60.8893 702 -7.71935e-08 644.692 -4.9729e-08 574C-2.22644e-08 503.308 60.8893 446 136 446C211.111 446 272 503.308 272 574Z" fill="white"/>
<path d="M718 701.5C718 728.838 694.495 751 665.5 751C636.505 751 613 728.838 613 701.5C613 674.162 636.505 652 665.5 652C694.495 652 718 674.162 718 701.5Z" fill="white"/>
<path d="M387 697.5C387 725.39 362.823 748 333 748C303.177 748 279 725.39 279 697.5C279 669.61 303.177 647 333 647C362.823 647 387 669.61 387 697.5Z" fill="white"/>
</svg>
