<svg version="1.1" viewBox="0.0 0.0 960.0 720.0" fill="none" stroke="none" stroke-linecap="square" stroke-miterlimit="10" xmlns:xlink="http://www.w3.org/1999/xlink" xmlns="http://www.w3.org/2000/svg"><clipPath id="p.0"><path d="m0 0l960.0 0l0 720.0l-960.0 0l0 -720.0z" clip-rule="nonzero"/></clipPath><g clip-path="url(#p.0)"><path fill="#000000" fill-opacity="0.0" d="m0 0l960.0 0l0 720.0l-960.0 0z" fill-rule="evenodd"/><path fill="#000000" fill-opacity="0.0" d="m192.3307 183.25113l0 0c0 -49.187668 39.87448 -89.06215 89.06215 -89.06215l429.21426 0c23.620789 0 46.27411 9.383301 62.9765 26.085693c16.702393 16.702393 26.085693 39.355698 26.085693 62.976456l0 356.23788c0 49.187683 -39.87451 89.062195 -89.062195 89.062195l-429.21426 0c-49.187668 0 -89.06215 -39.87451 -89.06215 -89.062195z" fill-rule="evenodd"/><path stroke="#000000" stroke-width="24.0" stroke-linejoin="round" stroke-linecap="butt" d="m192.3307 183.25113l0 0c0 -49.187668 39.87448 -89.06215 89.06215 -89.06215l429.21426 0c23.620789 0 46.27411 9.383301 62.9765 26.085693c16.702393 16.702393 26.085693 39.355698 26.085693 62.976456l0 356.23788c0 49.187683 -39.87451 89.062195 -89.062195 89.062195l-429.21426 0c-49.187668 0 -89.06215 -39.87451 -89.06215 -89.062195z" fill-rule="evenodd"/><path fill="#000000" fill-opacity="0.0" d="m9.259843 158.15749l941.48035 0l0 370.04724l-941.48035 0z" fill-rule="evenodd"/><path fill="#000000" d="m376.2002 365.71497q-20.328125 0 -37.28125 -9.4375q-16.9375 -9.453125 -26.890625 -26.390625q-9.953125 -16.9375 -9.953125 -38.09375q0 -21.140625 9.953125 -37.968735q9.953125 -16.84375 26.890625 -26.28125q16.953125 -9.453125 37.28125 -9.453125q20.328125 0 37.265625 9.453125q16.9375 9.4375 26.6875 26.28125q9.75 16.82811 9.75 37.968735q0 21.15625 -9.859375 38.09375q-9.84375 16.9375 -26.6875 26.390625q-16.828125 9.4375 -37.15625 9.4375zm0 -32.03125q17.234375 0 27.609375 -11.5q10.375 -11.5 10.375 -30.390625q0 -19.09375 -10.375 -30.484375q-10.375 -11.406235 -27.609375 -11.406235q-17.453125 0 -27.828125 11.29686q-10.375 11.296875 -10.375 30.59375q0 19.09375 10.375 30.5q10.375 11.390625 27.828125 11.390625zm128.32547 3.484375l45.984344 0l0 27.109375l-81.09372 0l0 -144.14061l35.109375 0l0 117.031235zm97.94156 -88.906235l0 29.156235l47.015625 0l0 27.109375l-47.015625 0l0 31.625l53.171875 0l0 28.125l-88.28125 0l0 -144.14061l88.28125 0l0 28.125l-53.171875 0z" fill-rule="nonzero"/><path fill="#000000" d="m340.72964 483.77557l-22.015625 0l-3.53125 10.421875l-15.03125 0l21.34375 -58.96875l16.625 0l21.328125 58.96875l-15.203125 0l-3.515625 -10.421875zm-3.703125 -11.078125l-7.3125 -21.59375l-7.21875 21.59375l14.53125 0zm43.267456 10.40625l18.8125 0l0 11.09375l-33.1875 0l0 -58.96875l14.375 0l0 47.875zm39.80243 -47.875l0 35.28125q0 5.296875 2.609375 8.15625q2.609375 2.84375 7.640625 2.84375q5.046875 0 7.734375 -2.84375q2.6875 -2.859375 2.6875 -8.15625l0 -35.28125l14.359375 0l0 35.203125q0 7.890625 -3.359375 13.359375q-3.359375 5.453125 -9.03125 8.234375q-5.671875 2.765625 -12.640625 2.765625q-6.96875 0 -12.46875 -2.734375q-5.5 -2.734375 -8.703125 -8.234375q-3.1875 -5.5 -3.1875 -13.390625l0 -35.203125l14.359375 0zm111.89194 0l0 58.96875l-14.359375 0l0 -35.359375l-13.1874695 35.359375l-11.59375 0l-13.265625 -35.453125l0 35.453125l-14.375 0l0 -58.96875l16.96875 0l16.546875 40.828125l16.390594 -40.828125l16.875 0zm63.08081 58.96875l-14.359375 0l-24.015625 -36.375l0 36.375l-14.375 0l0 -58.96875l14.375 0l24.015625 36.546875l0 -36.546875l14.359375 0l0 58.96875zm47.13684 -10.421875l-22.015625 0l-3.53125 10.421875l-15.03125 0l21.34375 -58.96875l16.625 0l21.328125 58.96875l-15.203125 0l-3.515625 -10.421875zm-3.703125 -11.078125l-7.3125 -21.59375l-7.21875 21.59375l14.53125 0z" fill-rule="nonzero"/></g></svg>