<?xml version="1.0" standalone="no"?>
<!DOCTYPE svg PUBLIC "-//W3C//DTD SVG 20010904//EN"
 "http://www.w3.org/TR/2001/REC-SVG-20010904/DTD/svg10.dtd">
<svg version="1.0" xmlns="http://www.w3.org/2000/svg"
 width="300.000000pt" height="300.000000pt" viewBox="0 0 300.000000 300.000000"
 preserveAspectRatio="xMidYMid meet">
<metadata>
Created by potrace 1.10, written by Peter Selinger 2001-2011
</metadata>
<g transform="translate(0.000000,300.000000) scale(0.100000,-0.100000)"
fill="#000000" stroke="none">
<path d="M112 2930 c-18 -4 -36 -11 -40 -15 -4 -4 -8 -639 -10 -1412 -3 -1306
-2 -1407 14 -1424 16 -18 65 -19 1425 -19 l1408 0 16 24 c14 21 16 156 15
1307 -2 1396 -3 1514 -21 1535 -10 13 -209 14 -1393 13 -760 -1 -1396 -5
-1414 -9z m2798 -1430 l0 -1410 -1410 0 -1410 0 0 1410 0 1410 1410 0 1410 0
0 -1410z"/>
<path d="M870 2244 c-107 -29 -193 -104 -244 -214 -63 -136 -33 -290 79 -403
85 -87 211 -130 316 -108 162 34 276 147 309 304 16 78 5 144 -37 227 -51 104
-140 173 -255 200 -58 13 -103 11 -168 -6z m155 -24 c80 -17 88 -20 105 -35 9
-8 21 -15 27 -15 5 0 28 -18 49 -40 131 -132 136 -346 9 -475 -122 -125 -299
-148 -435 -56 -190 128 -213 382 -49 538 29 27 100 68 149 86 23 8 101 7 145
-3z"/>
<path d="M930 2120 c-61 -13 -94 -30 -133 -71 -49 -51 -70 -101 -68 -167 1
-63 25 -114 78 -163 57 -54 83 -65 145 -68 196 -8 322 222 203 372 -35 44 -98
90 -128 94 -12 2 -31 5 -42 7 -11 2 -36 0 -55 -4z m115 -39 c76 -34 135 -123
135 -201 0 -32 -35 -108 -63 -138 -37 -40 -97 -66 -152 -66 -55 0 -115 26
-152 66 -28 30 -63 106 -63 138 0 110 106 220 215 220 22 0 58 -9 80 -19z"/>
<path d="M1440 1885 l0 -365 210 0 210 0 0 75 0 75 -130 0 -130 0 0 290 0 290
-80 0 -80 0 0 -365z m130 67 c0 -226 2 -271 16 -290 14 -21 23 -22 130 -22
l114 0 0 -45 0 -45 -182 2 -183 3 1 255 c1 140 2 290 3 333 l1 77 50 0 50 0 0
-268z"/>
<path d="M1960 1885 l0 -365 210 0 210 0 0 75 0 75 -130 0 -130 0 0 73 0 72
125 -4 125 -3 0 76 0 76 -125 0 -125 0 0 73 0 72 130 -3 130 -3 0 75 0 76
-210 0 -210 0 0 -365z m390 290 l0 -45 -112 0 c-141 0 -148 -5 -148 -99 1 -43
6 -73 16 -86 8 -11 17 -19 19 -17 3 1 52 2 110 2 l105 0 0 -44 0 -44 -82 0
c-167 0 -168 0 -168 -102 0 -97 4 -100 146 -100 l115 0 -3 -42 -3 -43 -177 -3
-178 -2 0 335 0 335 180 0 180 0 0 -45z"/>
<path d="M443 1263 c-4 -10 -41 -102 -84 -205 l-77 -188 48 0 c46 0 48 1 64
40 l16 40 78 0 79 0 12 -40 c12 -40 12 -40 61 -40 l48 0 -82 203 -82 202 -37
3 c-29 2 -39 -1 -44 -15z m64 -25 c13 -16 114 -270 112 -282 0 -5 5 -12 11
-16 6 -4 10 -18 8 -31 -3 -20 -5 -22 -16 -9 -7 8 -22 30 -33 48 l-19 33 -83
-3 -82 -3 -24 -37 c-22 -35 -51 -51 -51 -29 0 11 90 233 100 246 4 6 11 25 15
42 9 44 43 65 62 41z"/>
<path d="M466 1171 c-10 -11 -26 -48 -37 -82 -17 -53 -17 -65 -6 -76 22 -22
94 -23 120 -2 20 16 21 20 9 51 -8 18 -18 47 -23 64 -5 17 -17 38 -27 48 -18
15 -20 15 -36 -3z m42 -61 c11 -30 23 -63 27 -72 6 -16 1 -18 -48 -18 l-55 0
26 74 c15 41 28 74 28 73 1 -1 11 -27 22 -57z"/>
<path d="M730 1075 l0 -205 115 0 115 0 0 40 0 40 -72 0 -73 0 3 165 3 165
-46 0 -45 0 0 -205z m59 32 c0 -79 3 -150 6 -159 8 -20 36 -28 99 -28 32 0 47
-3 40 -10 -11 -11 -161 -16 -172 -6 -4 4 -7 80 -8 169 -1 154 3 176 28 177 4
0 8 -64 7 -143z"/>
<path d="M1010 1133 c0 -173 14 -218 78 -249 50 -23 141 -22 184 3 59 34 67
60 69 233 l1 155 -42 0 -41 0 -2 -135 c-1 -86 -7 -143 -15 -157 -18 -33 -76
-41 -110 -16 -27 20 -27 21 -30 167 l-3 146 -44 0 -45 0 0 -147z m60 1 c0
-115 12 -167 43 -193 22 -17 87 -20 117 -5 40 21 53 68 54 201 1 110 6 132 24
96 12 -26 7 -256 -7 -281 -19 -37 -58 -55 -119 -56 -56 -2 -85 6 -108 28 -28
29 -34 60 -34 190 0 114 2 136 15 136 12 0 15 -20 15 -116z"/>
<path d="M1415 1075 l-40 -205 50 0 50 0 18 118 c29 181 27 179 57 67 56 -207
45 -185 95 -185 50 0 39 -22 95 185 30 111 28 114 56 -67 l18 -118 53 0 c41 0
51 3 47 14 -3 8 -22 99 -42 203 l-37 188 -52 3 -51 3 -26 -83 c-13 -46 -33
-112 -42 -147 l-18 -64 -22 74 c-12 41 -32 107 -44 147 l-21 72 -52 0 -52 0
-40 -205z m124 161 c7 -8 13 -24 14 -35 1 -12 5 -21 10 -21 5 0 7 -6 4 -12 -2
-7 2 -25 10 -40 7 -16 11 -28 9 -28 -9 0 32 -102 47 -117 14 -15 18 -13 38 22
13 21 24 46 24 55 1 9 12 53 25 97 18 65 27 82 44 85 42 8 53 -2 61 -50 7 -50
7 -49 24 -132 6 -30 13 -68 15 -85 2 -16 7 -38 11 -48 4 -10 3 -23 -2 -28 -21
-21 -41 21 -53 108 -16 110 -33 156 -57 151 -18 -3 -35 -47 -77 -200 -14 -50
-20 -58 -41 -58 -21 0 -27 8 -43 63 -11 34 -23 78 -27 97 -4 19 -16 52 -27 73
-32 63 -53 29 -78 -123 -7 -41 -14 -81 -16 -88 -4 -12 -32 -28 -38 -21 -4 4 6
71 17 124 3 11 10 53 17 92 6 40 16 76 21 79 5 3 7 10 3 15 -19 32 40 55 65
25z"/>
<path d="M1950 1076 l0 -206 45 0 44 0 3 125 3 124 68 -124 69 -125 44 0 44 0
0 205 0 205 -46 0 -46 0 4 -129 c2 -71 1 -128 -1 -126 -2 2 -34 59 -71 127
l-67 123 -47 3 -46 3 0 -205z m95 139 c41 -81 92 -167 113 -191 22 -25 24 -25
37 -7 10 12 14 49 15 119 0 81 3 103 15 108 13 5 15 -18 15 -169 l0 -175 -23
0 c-16 0 -28 11 -42 38 -45 85 -116 202 -124 202 -24 0 -34 -36 -34 -135 -1
-93 -3 -105 -19 -105 -16 0 -18 14 -17 169 0 93 2 170 4 173 14 14 47 0 60
-27z"/>
<path d="M2410 1117 c-36 -89 -73 -181 -82 -204 l-18 -43 49 0 c47 0 48 1 61
40 l13 41 80 -3 80 -3 12 -35 c11 -34 14 -35 65 -38 43 -3 51 -1 43 10 -5 7
-45 100 -88 206 l-78 192 -36 0 -36 0 -65 -163z m140 90 c7 -18 18 -45 25 -62
35 -82 95 -232 95 -238 0 -4 -9 -7 -20 -7 -11 0 -19 3 -18 8 5 14 -36 72 -52
73 -49 4 -145 -3 -156 -11 -6 -6 -17 -24 -24 -40 -8 -19 -20 -30 -32 -30 -13
0 -18 5 -14 13 3 6 33 80 67 162 33 83 65 155 70 161 16 20 47 4 59 -29z"/>
<path d="M2493 1167 c-10 -13 -27 -49 -38 -80 -15 -46 -16 -58 -6 -71 18 -21
99 -21 122 0 16 15 16 19 -7 82 -32 88 -45 101 -71 69z m67 -139 c0 -4 -22 -8
-50 -8 -27 0 -50 2 -50 4 0 2 10 30 21 63 12 32 23 65 26 73 4 13 53 -109 53
-132z"/>
</g>
</svg>
